<svg xmlns="http://www.w3.org/2000/svg" xmlns:xlink="http://www.w3.org/1999/xlink" width="680" height="644" viewBox="0 0 680 644">
  <defs>
    <filter id="Rectangle_3" x="0" y="199" width="680" height="445" filterUnits="userSpaceOnUse">
      <feOffset dy="3" input="SourceAlpha"/>
      <feGaussianBlur stdDeviation="3" result="blur"/>
      <feFlood flood-opacity="0.161"/>
      <feComposite operator="in" in2="blur"/>
      <feComposite in="SourceGraphic"/>
    </filter>
  </defs>
  <g id="Group_2" data-name="Group 2" transform="translate(-644 -304)">
    <g id="Group_1" data-name="Group 1">
      <path id="Rectangle_2" data-name="Rectangle 2" d="M100,0H562A100,100,0,0,1,662,100v78a0,0,0,0,1,0,0H0a0,0,0,0,1,0,0V100A100,100,0,0,1,100,0Z" transform="translate(653 338)" fill="#ff7d7d"/>
      <g transform="matrix(1, 0, 0, 1, 644, 304)" filter="url(#Rectangle_3)">
        <path id="Rectangle_3-2" data-name="Rectangle 3" d="M0,0H662a0,0,0,0,1,0,0V402a25,25,0,0,1-25,25H25A25,25,0,0,1,0,402V0A0,0,0,0,1,0,0Z" transform="translate(9 205)" fill="#fff"/>
      </g>
    </g>
    <rect id="Rectangle_4" data-name="Rectangle 4" width="59" height="106" rx="29.5" transform="translate(730 304)" fill="#fff"/>
    <rect id="Rectangle_5" data-name="Rectangle 5" width="59" height="106" rx="29.5" transform="translate(822 304)" fill="#fff"/>
    <rect id="Rectangle_6" data-name="Rectangle 6" width="59" height="106" rx="29.5" transform="translate(914 304)" fill="#fff"/>
    <rect id="Rectangle_7" data-name="Rectangle 7" width="59" height="106" rx="29.5" transform="translate(1006 304)" fill="#fff"/>
    <rect id="Rectangle_8" data-name="Rectangle 8" width="59" height="106" rx="29.5" transform="translate(1104 304)" fill="#fff"/>
    <rect id="Rectangle_9" data-name="Rectangle 9" width="59" height="106" rx="29.5" transform="translate(1202 304)" fill="#fff"/>
  </g>
</svg>
